<svg xmlns="http://www.w3.org/2000/svg" style="display: none;">
    <symbol id="menu" viewBox="0 0 24 24">
        <path d="M3 18h18v-2H3v2zm0-5h18v-2H3v2zm0-7v2h18V6H3z"/>
    </symbol>

    <symbol id="search" viewBox="0 0 24 24">
        <path d="M15.5 14h-.79l-.28-.27a6.5 6.5 0 0 0 1.48-5.34c-.47-2.78-2.79-5-5.59-5.34a6.505 6.505 0 0 0-7.27 7.27c.34 2.8 2.56 5.12 5.34 5.59a6.5 6.5 0 0 0 5.34-1.48l.27.28v.79l4.25 4.25c.41.41 1.08.41 1.49 0 .41-.41.41-1.08 0-1.49L15.5 14zm-6 0C7.01 14 5 11.99 5 9.5S7.01 5 9.5 5 14 7.01 14 9.5 11.99 14 9.5 14z"/>
    </symbol>

    <symbol id="email" viewBox="0 0 24 24">
        <path d="M20 4H4c-1.1 0-1.99.9-1.99 2L2 18c0 1.1.9 2 2 2h16c1.1 0 2-.9 2-2V6c0-1.1-.9-2-2-2zm0 4l-8 5-8-5V6l8 5 8-5v2z"/>
    </symbol>

    <symbol id="phone" viewBox="0 0 24 24">
        <path d="M20.01 15.38c-1.23 0-2.42-.2-3.53-.56-.35-.12-.74-.03-1.01.24l-1.57 1.97c-2.83-1.35-5.48-3.9-6.89-6.83l1.95-1.66c.27-.28.35-.67.24-1.02-.37-1.11-.56-2.3-.56-3.53 0-.54-.45-.99-.99-.99H4.19C3.65 3 3 3.24 3 3.99 3 13.28 10.73 21 20.01 21c.71 0 .99-.63.99-1.18v-3.45c0-.54-.45-.99-.99-.99z"/>
    </symbol>

    <symbol id="facebook" viewBox="0 0 24 24">
        <path d="M22 12c0-5.52-4.48-10-10-10S2 6.48 2 12c0 4.84 3.44 8.87 8 9.8V15H8v-3h2V9.5C10 7.57 11.57 6 13.5 6H16v3h-2c-.55 0-1 .45-1 1v2h3v3h-3v6.95c5.05-.5 9-4.76 9-9.95z"/>
    </symbol>
    <symbol id="twitter" viewBox="0 0 24 24">
        <path d="M22.46 6c-.77.35-1.6.58-2.46.69.88-.53 1.56-1.37 1.88-2.38-.83.5-1.75.85-2.72 1.05C18.37 4.5 17.26 4 16 4c-2.35 0-4.27 1.92-4.27 4.29 0 .34.04.67.11.98C8.28 9.09 5.11 7.38 3 4.79c-.37.63-.58 1.37-.58 2.15 0 1.49.75 2.81 1.91 3.56-.71 0-1.37-.2-1.95-.5v.03c0 2.08 1.48 3.82 3.44 4.21a4.22 4.22 0 0 1-1.93.07 4.28 4.28 0 0 0 4 2.98 8.521 8.521 0 0 1-5.33 1.84c-.34 0-.68-.02-1.02-.06C3.44 20.29 5.7 21 8.12 21 16 21 20.33 14.46 20.33 8.79c0-.19 0-.37-.01-.56.84-.6 1.56-1.36 2.14-2.23z"/>
    </symbol>

    <symbol id="vk" viewBox="0 0 24 24">
        <path d="M15.07 2H8.93C3.33 2 2 3.33 2 8.93v6.14C2 20.67 3.33 22 8.93 22h6.14c5.6 0 6.93-1.33 6.93-6.93V8.93C22 3.33 20.67 2 15.07 2zm3.13 14.27c-1.38 1.88-3.51 2.85-3.51 2.85s-.51.49-1.16.49c-.61 0-1.09-.44-1.09-.93 0-.39.31-.69.69-.69.24 0 .47.12.62.3.15.18.29.33.44.45.41.34.82.57 1.29.73.45.16.94.24 1.44.24 1.64 0 2.98-1.04 2.98-2.92 0-1.41-.96-2.09-2.01-2.69l-.85-.36c-.28-.12-.4-.2-.4-.38 0-.19.15-.33.4-.33.21 0 .43.08.64.23.21.15.42.37.63.65.28.38.53.81.76 1.28.23.47.41.98.55 1.52.14.54.21 1.11.21 1.71 0 .39-.07.76-.21 1.11-.14.35-.34.66-.6.93z"/>
    </symbol>

    <symbol id="arrow-right" viewBox="0 0 24 24">
        <path d="M12 4l-1.41 1.41L16.17 11H4v2h12.17l-5.58 5.59L12 20l8-8z"/>
    </symbol>
</svg>