<?xml version="1.0" standalone="no"?>
<!DOCTYPE svg PUBLIC "-//W3C//DTD SVG 20010904//EN"
 "http://www.w3.org/TR/2001/REC-SVG-20010904/DTD/svg10.dtd">
<svg version="1.0" xmlns="http://www.w3.org/2000/svg"
 width="199.000000pt" height="200.000000pt" viewBox="0 0 199.000000 200.000000"
 preserveAspectRatio="xMidYMid meet">

<g transform="translate(0.000000,200.000000) scale(0.100000,-0.100000)"
fill="#000000" stroke="none">
<path d="M596 1291 c-3 -5 15 -53 40 -107 45 -97 45 -98 29 -136 -19 -49 -19
-60 1 -56 15 3 144 266 144 295 0 7 -6 13 -14 13 -7 0 -30 -38 -51 -85 -21
-47 -41 -82 -45 -78 -4 4 -22 43 -40 86 -31 71 -50 91 -64 68z"/>
<path d="M864 1277 c-22 -19 -29 -36 -35 -86 -4 -34 -4 -74 0 -89 8 -27 8 -27
99 -27 82 0 93 2 116 24 32 30 42 81 27 132 -15 49 -51 69 -125 69 -43 0 -61
-5 -82 -23z m156 -34 c17 -22 21 -37 17 -68 -8 -56 -35 -75 -108 -75 l-59 0 0
67 c0 85 14 103 81 103 40 0 51 -4 69 -27z"/>
<path d="M1120 1210 c0 -50 5 -100 10 -110 15 -28 74 -36 106 -15 24 16 26 16
39 -2 26 -35 36 -2 33 108 -3 90 -5 104 -20 107 -16 3 -18 -6 -18 -73 0 -67
-3 -79 -25 -100 -27 -28 -43 -31 -68 -12 -13 9 -17 32 -19 97 -3 71 -6 85 -20
88 -16 3 -18 -6 -18 -88z"/>
<path d="M1189 1008 c-3 -36 3 -313 6 -317 2 -2 11 -1 20 3 13 5 15 28 13 163
-3 141 -5 158 -20 161 -10 2 -18 -2 -19 -10z"/>
<path d="M1272 858 c3 -137 5 -163 18 -163 11 0 16 14 18 53 l3 53 65 -57 c51
-45 67 -55 77 -45 9 9 1 23 -39 61 l-51 48 46 46 c35 35 43 48 34 57 -9 9 -26
-1 -70 -41 l-58 -53 -5 99 c-4 84 -8 99 -23 102 -16 3 -17 -8 -15 -160z"/>
<path d="M767 984 c-4 -4 -7 -20 -7 -35 0 -21 -5 -28 -22 -31 -30 -4 -34 -26
-6 -30 21 -3 23 -8 26 -80 3 -69 5 -79 29 -98 27 -21 68 -27 78 -10 3 5 -10
16 -30 24 l-35 15 0 75 0 76 31 0 c38 0 35 24 -4 28 -21 3 -26 9 -29 34 -3 31
-17 45 -31 32z"/>
<path d="M938 904 c-55 -29 -62 -138 -12 -185 23 -22 34 -24 117 -24 l92 0 3
83 c3 80 2 84 -27 112 -26 27 -36 30 -88 30 -32 -1 -70 -7 -85 -16z m146 -36
c11 -15 16 -45 16 -85 l0 -63 -59 0 c-73 0 -100 19 -108 75 -4 31 0 46 17 68
18 23 29 27 70 27 39 0 52 -4 64 -22z"/>
</g>
</svg>
